G04 (created by PCBNEW (2012-nov-02)-testing) date Wed 16 Jan 2013 09:01:30 PM EST*
%MOIN*%
G04 Gerber Fmt 3.4, Leading zero omitted, Abs format*
%FSLAX34Y34*%
G01*
G70*
G90*
G04 APERTURE LIST*
%ADD10C,3.93701e-05*%
%ADD11R,0.055X0.055*%
%ADD12C,0.055*%
%ADD13R,0.06X0.06*%
%ADD14C,0.06*%
%ADD15C,0.066*%
%ADD16C,0.07*%
%ADD17R,0.07X0.07*%
%ADD18C,0.01*%
G04 APERTURE END LIST*
G54D10*
G54D11*
X63600Y-47500D03*
G54D12*
X63600Y-48500D03*
X54900Y-50200D03*
X55900Y-50200D03*
X57000Y-50200D03*
X58000Y-50200D03*
X57700Y-43600D03*
X57700Y-42600D03*
X55800Y-43600D03*
X54800Y-43600D03*
X59600Y-45000D03*
X59600Y-46000D03*
G54D13*
X59700Y-43600D03*
G54D14*
X59700Y-42600D03*
X59700Y-41600D03*
G54D15*
X55700Y-41700D03*
X55700Y-40700D03*
G54D11*
X57800Y-46000D03*
G54D12*
X56800Y-46000D03*
X55800Y-46000D03*
X54800Y-46000D03*
X54800Y-49000D03*
X55800Y-49000D03*
X56800Y-49000D03*
X57800Y-49000D03*
G54D16*
X62300Y-46100D03*
G54D17*
X62300Y-42100D03*
X66000Y-50000D03*
G54D16*
X66000Y-47000D03*
G54D17*
X61300Y-35400D03*
G54D16*
X55300Y-35400D03*
G54D17*
X65300Y-41400D03*
G54D16*
X65300Y-35400D03*
X64000Y-50300D03*
X62000Y-50300D03*
G54D11*
X58000Y-41400D03*
G54D12*
X58000Y-40400D03*
G54D11*
X59600Y-48100D03*
G54D12*
X59600Y-47100D03*
X55800Y-44900D03*
X54800Y-44900D03*
X62300Y-48500D03*
X62300Y-47500D03*
X60100Y-49500D03*
X59100Y-49500D03*
X58000Y-44900D03*
X57000Y-44900D03*
G54D18*
X57000Y-50200D02*
X56800Y-50000D01*
X56800Y-50000D02*
X56800Y-49000D01*
X59600Y-47100D02*
X60100Y-47600D01*
X60100Y-47600D02*
X60100Y-49500D01*
X59600Y-45000D02*
X60100Y-45500D01*
X60100Y-45500D02*
X60100Y-46200D01*
X60100Y-46200D02*
X60000Y-46300D01*
X60000Y-46300D02*
X60000Y-46400D01*
X60000Y-46400D02*
X59600Y-46800D01*
X59600Y-46800D02*
X59600Y-47100D01*
X58000Y-44900D02*
X57800Y-45100D01*
X57800Y-45100D02*
X57800Y-46000D01*
X56800Y-46000D02*
X55800Y-47000D01*
X55800Y-47000D02*
X55800Y-49000D01*
X55800Y-49000D02*
X54900Y-49900D01*
X54900Y-49900D02*
X54900Y-50200D01*
X57000Y-44900D02*
X56800Y-45100D01*
X56800Y-45100D02*
X56800Y-46000D01*
X54800Y-46000D02*
X54800Y-45800D01*
X57700Y-43500D02*
X57700Y-43600D01*
X57000Y-42800D02*
X57700Y-43500D01*
X54300Y-42800D02*
X57000Y-42800D01*
X54300Y-45300D02*
X54300Y-42800D01*
X54800Y-45800D02*
X54300Y-45300D01*
X57700Y-43600D02*
X57500Y-43800D01*
X57500Y-43800D02*
X57500Y-45100D01*
X57500Y-45100D02*
X57400Y-45200D01*
X57400Y-45200D02*
X57400Y-45300D01*
X57400Y-45300D02*
X57300Y-45400D01*
X57300Y-45400D02*
X57300Y-46500D01*
X57300Y-46500D02*
X57800Y-47000D01*
X57800Y-47000D02*
X57800Y-49000D01*
X58000Y-41400D02*
X58200Y-41600D01*
X58200Y-41600D02*
X58200Y-42800D01*
X58200Y-42800D02*
X58100Y-42900D01*
X58100Y-42900D02*
X58100Y-43000D01*
X58100Y-43000D02*
X57700Y-43400D01*
X57700Y-43400D02*
X57700Y-43600D01*
X57800Y-49000D02*
X58000Y-49200D01*
X58000Y-49200D02*
X58000Y-50200D01*
X55300Y-35400D02*
X55300Y-36900D01*
X62300Y-39000D02*
X62300Y-42100D01*
X62100Y-38800D02*
X62300Y-39000D01*
X57200Y-38800D02*
X62100Y-38800D01*
X55300Y-36900D02*
X57200Y-38800D01*
X62300Y-42100D02*
X60300Y-42100D01*
X59800Y-42600D02*
X59700Y-42600D01*
X60300Y-42100D02*
X59800Y-42600D01*
X54800Y-43600D02*
X54800Y-44900D01*
X55800Y-43600D02*
X55800Y-44900D01*
X55800Y-44900D02*
X55800Y-46000D01*
X65300Y-41400D02*
X62300Y-44400D01*
X62300Y-44400D02*
X62300Y-46100D01*
X62300Y-47500D02*
X61800Y-48000D01*
X61800Y-48000D02*
X61800Y-48700D01*
X61800Y-48700D02*
X61900Y-48800D01*
X61900Y-48800D02*
X61900Y-48900D01*
X61900Y-48900D02*
X62000Y-49000D01*
X62000Y-49000D02*
X62000Y-50300D01*
X62300Y-46100D02*
X62300Y-47500D01*
G54D10*
G36*
X64250Y-41679D02*
X60350Y-45579D01*
X60350Y-43050D01*
X59150Y-43050D01*
X59150Y-42150D01*
X60350Y-42150D01*
X60350Y-40950D01*
X59150Y-40950D01*
X59150Y-39750D01*
X54450Y-39750D01*
X54450Y-33550D01*
X59950Y-33550D01*
X59950Y-36450D01*
X64250Y-36450D01*
X64250Y-41679D01*
X64250Y-41679D01*
G37*
G54D18*
X64250Y-41679D02*
X60350Y-45579D01*
X60350Y-43050D01*
X59150Y-43050D01*
X59150Y-42150D01*
X60350Y-42150D01*
X60350Y-40950D01*
X59150Y-40950D01*
X59150Y-39750D01*
X54450Y-39750D01*
X54450Y-33550D01*
X59950Y-33550D01*
X59950Y-36450D01*
X64250Y-36450D01*
X64250Y-41679D01*
G54D10*
G36*
X66750Y-46250D02*
X62750Y-46250D01*
X62750Y-47850D01*
X61750Y-47850D01*
X61750Y-48711D01*
X61969Y-49150D01*
X63050Y-49150D01*
X63050Y-50750D01*
X60750Y-50750D01*
X60750Y-48750D01*
X60450Y-48750D01*
X60450Y-46121D01*
X64650Y-42021D01*
X64650Y-38500D01*
X64650Y-37250D01*
X66750Y-37250D01*
X66750Y-38500D01*
X66750Y-46250D01*
X66750Y-46250D01*
G37*
G54D18*
X66750Y-46250D02*
X62750Y-46250D01*
X62750Y-47850D01*
X61750Y-47850D01*
X61750Y-48711D01*
X61969Y-49150D01*
X63050Y-49150D01*
X63050Y-50750D01*
X60750Y-50750D01*
X60750Y-48750D01*
X60450Y-48750D01*
X60450Y-46121D01*
X64650Y-42021D01*
X64650Y-38500D01*
X64650Y-37250D01*
X66750Y-37250D01*
X66750Y-38500D01*
X66750Y-46250D01*
M02*
