M48
INCH,TZ
T1C0.032
T2C0.040
%
G90
G05
T1
X54800Y-43600
X54800Y-44900
X54800Y-46000
X54800Y-49000
X54900Y-50200
X55700Y-40700
X55700Y-41700
X55800Y-43600
X55800Y-44900
X55800Y-46000
X55800Y-49000
X55900Y-50200
X56800Y-46000
X56800Y-49000
X57000Y-44900
X57000Y-50200
X57700Y-42600
X57700Y-43600
X57800Y-46000
X57800Y-49000
X58000Y-40400
X58000Y-41400
X58000Y-44900
X58000Y-50200
X59100Y-49500
X59600Y-45000
X59600Y-46000
X59600Y-47100
X59600Y-48100
X60100Y-49500
X62300Y-47500
X62300Y-48500
X63600Y-47500
X63600Y-48500
T2
X55300Y-35400
X59700Y-41600
X59700Y-42600
X59700Y-43600
X61300Y-35400
X62000Y-50300
X62300Y-42100
X62300Y-46100
X64000Y-50300
X65300Y-35400
X65300Y-41400
X66000Y-47000
X66000Y-50000
T0
M30
