G04 (created by PCBNEW (2012-nov-02)-testing) date Wed 16 Jan 2013 09:01:30 PM EST*
%MOIN*%
G04 Gerber Fmt 3.4, Leading zero omitted, Abs format*
%FSLAX34Y34*%
G01*
G70*
G90*
G04 APERTURE LIST*
%ADD10C,3.93701e-05*%
%ADD11C,0.00984252*%
G04 APERTURE END LIST*
G54D10*
G54D11*
X66593Y-33896D02*
X66499Y-34159D01*
X66406Y-33896D01*
X66256Y-34121D02*
X66237Y-34140D01*
X66256Y-34159D01*
X66274Y-34140D01*
X66256Y-34121D01*
X66256Y-34159D01*
X65693Y-33765D02*
X65656Y-33765D01*
X65618Y-33784D01*
X65599Y-33803D01*
X65581Y-33840D01*
X65562Y-33915D01*
X65562Y-34009D01*
X65581Y-34084D01*
X65599Y-34121D01*
X65618Y-34140D01*
X65656Y-34159D01*
X65693Y-34159D01*
X65731Y-34140D01*
X65749Y-34121D01*
X65768Y-34084D01*
X65787Y-34009D01*
X65787Y-33915D01*
X65768Y-33840D01*
X65749Y-33803D01*
X65731Y-33784D01*
X65693Y-33765D01*
X65393Y-34121D02*
X65375Y-34140D01*
X65393Y-34159D01*
X65412Y-34140D01*
X65393Y-34121D01*
X65393Y-34159D01*
X65187Y-34159D02*
X65112Y-34159D01*
X65075Y-34140D01*
X65056Y-34121D01*
X65018Y-34065D01*
X65000Y-33990D01*
X65000Y-33840D01*
X65018Y-33803D01*
X65037Y-33784D01*
X65075Y-33765D01*
X65150Y-33765D01*
X65187Y-33784D01*
X65206Y-33803D01*
X65225Y-33840D01*
X65225Y-33934D01*
X65206Y-33971D01*
X65187Y-33990D01*
X65150Y-34009D01*
X65075Y-34009D01*
X65037Y-33990D01*
X65018Y-33971D01*
X65000Y-33934D01*
X64756Y-33765D02*
X64718Y-33765D01*
X64681Y-33784D01*
X64662Y-33803D01*
X64643Y-33840D01*
X64625Y-33915D01*
X64625Y-34009D01*
X64643Y-34084D01*
X64662Y-34121D01*
X64681Y-34140D01*
X64718Y-34159D01*
X64756Y-34159D01*
X64793Y-34140D01*
X64812Y-34121D01*
X64831Y-34084D01*
X64850Y-34009D01*
X64850Y-33915D01*
X64831Y-33840D01*
X64812Y-33803D01*
X64793Y-33784D01*
X64756Y-33765D01*
M02*
