G04 (created by PCBNEW (2012-nov-02)-testing) date Wed 16 Jan 2013 09:01:30 PM EST*
%MOIN*%
G04 Gerber Fmt 3.4, Leading zero omitted, Abs format*
%FSLAX34Y34*%
G01*
G70*
G90*
G04 APERTURE LIST*
%ADD10C,3.93701e-05*%
%ADD11R,0.070748X0.070748*%
%ADD12C,0.070748*%
%ADD13R,0.075748X0.075748*%
%ADD14C,0.075748*%
%ADD15C,0.081748*%
%ADD16C,0.085748*%
%ADD17R,0.085748X0.085748*%
G04 APERTURE END LIST*
G54D10*
G54D11*
X63600Y-47500D03*
G54D12*
X63600Y-48500D03*
X54900Y-50200D03*
X55900Y-50200D03*
X57000Y-50200D03*
X58000Y-50200D03*
X57700Y-43600D03*
X57700Y-42600D03*
X55800Y-43600D03*
X54800Y-43600D03*
X59600Y-45000D03*
X59600Y-46000D03*
G54D13*
X59700Y-43600D03*
G54D14*
X59700Y-42600D03*
X59700Y-41600D03*
G54D15*
X55700Y-41700D03*
X55700Y-40700D03*
G54D11*
X57800Y-46000D03*
G54D12*
X56800Y-46000D03*
X55800Y-46000D03*
X54800Y-46000D03*
X54800Y-49000D03*
X55800Y-49000D03*
X56800Y-49000D03*
X57800Y-49000D03*
G54D16*
X62300Y-46100D03*
G54D17*
X62300Y-42100D03*
X66000Y-50000D03*
G54D16*
X66000Y-47000D03*
G54D17*
X61300Y-35400D03*
G54D16*
X55300Y-35400D03*
G54D17*
X65300Y-41400D03*
G54D16*
X65300Y-35400D03*
X64000Y-50300D03*
X62000Y-50300D03*
G54D11*
X58000Y-41400D03*
G54D12*
X58000Y-40400D03*
G54D11*
X59600Y-48100D03*
G54D12*
X59600Y-47100D03*
X55800Y-44900D03*
X54800Y-44900D03*
X62300Y-48500D03*
X62300Y-47500D03*
X60100Y-49500D03*
X59100Y-49500D03*
X58000Y-44900D03*
X57000Y-44900D03*
M02*
